<svg width="40" height="40" viewBox="0 0 40 40" fill="none" xmlns="http://www.w3.org/2000/svg">
<path d="M25.0001 4V10C25.0001 11.1046 25.8956 12 27.0001 12H33.0001M14.0001 12H18.0001M14.0001 18H26.0001M14.0001 24H26.0001M30.0001 7C29.11 6.20357 28.1863 5.25896 27.6032 4.64546C27.2152 4.23722 26.6791 4 26.1159 4H10.9997C8.79054 4 6.99968 5.79085 6.99967 7.99998L6.99951 31.9999C6.9995 34.209 8.79035 35.9999 10.9995 35.9999L28.9996 36C31.2087 36 32.9995 34.2092 32.9996 32.0001L33.0001 10.7964C33.0001 10.285 32.805 9.79339 32.4501 9.42522C31.7938 8.74441 30.6978 7.62419 30.0001 7Z" stroke="#5734DC" stroke-width="2" stroke-linecap="round" stroke-linejoin="round"/>
</svg>
