<svg width="30" height="24" viewBox="0 0 30 24" fill="none" xmlns="http://www.w3.org/2000/svg">
<path d="M6 2.25C5.57812 2.25 5.25 2.625 5.25 3V15H16.5V18H2.25C0.984375 18 0 17.0156 0 15.75C0 15.375 0.328125 15 0.75 15H3V3C3 1.35938 4.3125 0 6 0H21C22.6406 0 24 1.35938 24 3V4.5H21.75V3C21.75 2.625 21.375 2.25 21 2.25H6ZM18 8.25C18 7.03125 18.9844 6 20.25 6H27.75C28.9688 6 30 7.03125 30 8.25V21.75C30 23.0156 28.9688 24 27.75 24H20.25C18.9844 24 18 23.0156 18 21.75V8.25ZM20.25 8.25V21.75H27.75V8.25H20.25Z" fill="#313436"/>
</svg>
