<svg width="24" height="24" viewBox="0 0 24 24" fill="none" xmlns="http://www.w3.org/2000/svg">
<path d="M3.42188 5.95312C3.14062 6.09375 2.95312 6.32812 3 6.5625C3 7.40625 3.04688 8.39062 3.23438 9.42188H10.875V2.8125L3.42188 5.95312ZM3.70312 11.625C4.6875 15.0938 6.79688 18.8438 10.875 21.1406V11.625H3.70312ZM13.125 11.625V21.1406C17.1562 18.8438 19.2656 15.0938 20.25 11.625H13.125ZM20.7188 9.375C20.9062 8.39062 20.9531 7.40625 21 6.5625C21 6.32812 20.8125 6.09375 20.5781 5.95312L13.125 2.8125V9.375H20.7188ZM12.6094 0.140625L21.4219 3.89062C22.4531 4.35938 23.25 5.34375 23.25 6.5625C23.2031 11.25 21.2812 19.7344 13.2188 23.625C12.4219 24 11.5312 24 10.7344 23.625C2.67188 19.7344 0.75 11.25 0.75 6.5625C0.703125 5.34375 1.5 4.35938 2.53125 3.89062L11.3438 0.140625C11.5312 0.046875 11.7656 0 12 0C12.1875 0 12.4219 0.046875 12.6094 0.140625Z" fill="#313436"/>
</svg>
