<svg width="27" height="18" viewBox="0 0 27 18" fill="none" xmlns="http://www.w3.org/2000/svg">
<path d="M3 0H24C25.6406 0 27 1.35938 27 3V5.85938C27 6.32812 26.6719 6.75 26.25 6.89062C25.3594 7.21875 24.75 8.0625 24.75 9C24.75 9.98438 25.3594 10.8281 26.25 11.1562C26.6719 11.2969 27 11.7188 27 12.1875V15C27 16.6875 25.6406 18 24 18H3C1.3125 18 0 16.6875 0 15V12.1875C0 11.7188 0.28125 11.2969 0.75 11.1562C1.59375 10.8281 2.25 9.98438 2.25 9C2.25 8.0625 1.59375 7.21875 0.75 6.89062C0.28125 6.75 0 6.32812 0 5.85938V3C0 1.35938 1.3125 0 3 0ZM2.25 3V5.10938C3.5625 5.90625 4.5 7.35938 4.5 9C4.5 10.6875 3.5625 12.1406 2.25 12.9375V15C2.25 15.4219 2.57812 15.75 3 15.75H24C24.375 15.75 24.75 15.4219 24.75 15V12.9375C23.3906 12.1406 22.5 10.6875 22.5 9C22.5 7.35938 23.3906 5.90625 24.75 5.10938V3C24.75 2.625 24.375 2.25 24 2.25H3C2.57812 2.25 2.25 2.625 2.25 3ZM18.75 11.25V6.75H8.25V11.25H18.75ZM6 6C6 5.20312 6.65625 4.5 7.5 4.5H19.5C20.2969 4.5 21 5.20312 21 6V12C21 12.8438 20.2969 13.5 19.5 13.5H7.5C6.65625 13.5 6 12.8438 6 12V6Z" fill="#313436"/>
</svg>
