<svg width="24" height="24" viewBox="0 0 24 24" fill="none" xmlns="http://www.w3.org/2000/svg">
<path d="M9.6001 21.6004H7.2001C5.21187 21.6004 3.6001 19.9886 3.6001 18.0004V6.00039C3.6001 4.01217 5.21187 2.40039 7.2001 2.40039H15.6001C17.5883 2.40039 19.2001 4.01217 19.2001 6.00039V9.00039M15.0001 15.0004V13.8004C15.0001 12.8063 15.806 12.0004 16.8001 12.0004C17.7942 12.0004 18.6001 12.8063 18.6001 13.8004V15.6004M15.0001 7.20039H7.2001M11.4001 10.8004H7.2001M9.6001 14.4004H7.2001M14.4001 21.6004H19.2001C19.8628 21.6004 20.4001 21.0631 20.4001 20.4004V16.8004C20.4001 16.1376 19.8628 15.6004 19.2001 15.6004H14.4001C13.7374 15.6004 13.2001 16.1376 13.2001 16.8004V20.4004C13.2001 21.0631 13.7374 21.6004 14.4001 21.6004Z" stroke="#868B8F" stroke-width="2" stroke-linecap="round" stroke-linejoin="round"/>
</svg>
