<svg width="24" height="24" viewBox="0 0 24 24" fill="none" xmlns="http://www.w3.org/2000/svg">
<path d="M2.4001 14.0962L2.39991 8.82845C2.39986 7.50293 3.47438 6.42837 4.79989 6.42836L19.2001 6.42825C20.5256 6.42824 21.6001 7.50276 21.6001 8.82825V14.0962M2.4001 14.0962H21.6001M2.4001 14.0962L2.3999 19.6281C2.39986 20.9537 3.47439 22.0282 4.7999 22.0282H19.2001C20.5256 22.0282 21.6001 20.9537 21.6001 19.6282V14.0962M12.1746 22.0282V6.42823M10.9643 5.92304C11.144 5.91566 11.3101 5.82117 11.3995 5.66643C11.4888 5.51168 11.4875 5.32052 11.4041 5.16124C11.0855 4.58054 9.96742 2.64967 9.23775 2.22839C8.32868 1.70354 7.16098 2.01322 6.63873 2.9178C6.11651 3.82231 6.43206 4.98843 7.3412 5.51332C8.0828 5.94149 10.3021 5.93743 10.9643 5.92304ZM12.6347 5.16108C12.5512 5.3204 12.55 5.51152 12.6393 5.66627C12.7287 5.82101 12.8949 5.91544 13.0745 5.92288C13.7368 5.93726 15.968 5.93443 16.6976 5.51316C17.6067 4.98831 17.9224 3.82221 17.4001 2.91764C16.8779 2.01313 15.7102 1.70334 14.8011 2.22823C14.0595 2.6564 12.9533 4.58039 12.6347 5.16108Z" stroke="#5734DC" stroke-width="2" stroke-linecap="round" stroke-linejoin="round"/>
</svg>
